<?xml version="1.0" encoding="utf-8"?>
<!-- Generator: Adobe Illustrator 22.0.1, SVG Export Plug-In . SVG Version: 6.00 Build 0)  -->
<svg version="1.1" id="Capa_1" xmlns="http://www.w3.org/2000/svg" xmlns:xlink="http://www.w3.org/1999/xlink" x="0px" y="0px"
	 viewBox="0 0 19.607 24" style="enable-background:new 0 0 19.607 24;" xml:space="preserve">
<style type="text/css">
	.st0{fill:#BABABA;}
	.st1{fill:#231F20;}
</style>
<path class="st0" d="M19.592,7.219V7.215l0,0l0,0c0-0.014-0.006-0.026-0.008-0.039c-0.004-0.03-0.006-0.06-0.018-0.089
	c-0.013-0.032-0.033-0.059-0.055-0.085c-0.006-0.008-0.009-0.017-0.016-0.025l-0.002-0.003c-0.001-0.001-0.002-0.002-0.003-0.003
	l-5.451-5.599l-0.001-0.001C13.977,1.309,13.893,1.27,13.8,1.269h-0.001c-0.002,0-0.003-0.001-0.005-0.001H2.947
	c-0.942,0-1.708,0.766-1.708,1.708v19.331c0,0.942,0.767,1.708,1.708,1.708h14.937c0.942,0,1.708-0.766,1.708-1.707V7.221
	C19.592,7.22,19.592,7.219,19.592,7.219z"/>
<path d="M18.354,5.951V5.947l0,0l0,0c0-0.014-0.006-0.026-0.008-0.039c-0.004-0.03-0.006-0.06-0.018-0.089
	c-0.013-0.032-0.033-0.059-0.055-0.085c-0.006-0.008-0.009-0.017-0.016-0.025l-0.002-0.003c-0.001-0.001-0.002-0.002-0.003-0.003
	l-5.451-5.599L12.8,0.103c-0.061-0.062-0.145-0.101-0.238-0.102h-0.001C12.559,0.001,12.557,0,12.556,0H1.708
	C0.767,0,0,0.766,0,1.708v19.331c0,0.942,0.767,1.708,1.708,1.708h14.937c0.942,0,1.708-0.766,1.708-1.707V5.953
	C18.354,5.952,18.354,5.952,18.354,5.951z M12.897,1.183l4.305,4.422h-4.305C12.897,5.605,12.897,1.183,12.897,1.183z
	 M16.646,22.064H1.708c-0.565,0-1.025-0.46-1.025-1.025V1.708c0-0.565,0.46-1.025,1.025-1.025h10.506v5.264
	c0,0.189,0.153,0.342,0.342,0.342h5.115v14.75C17.67,21.604,17.211,22.064,16.646,22.064z"/>
<g>
	<path class="st1" d="M5.968,15.424H4.977v1.031H4.316v-3.504c0.551,0,1.101-0.005,1.652-0.005
		C7.679,12.946,7.685,15.424,5.968,15.424z M4.977,14.818h0.991c0.846,0,0.841-1.241,0-1.241H4.977V14.818z"/>
	<path class="st1" d="M9.908,13.798c-0.12-0.2-0.45-0.391-0.831-0.391c-0.491,0-0.726,0.205-0.726,0.466
		c0,0.305,0.36,0.39,0.781,0.439c0.73,0.091,1.411,0.281,1.411,1.116c0,0.781-0.69,1.116-1.472,1.116
		c-0.715,0-1.266-0.22-1.526-0.86l0.551-0.285c0.155,0.385,0.561,0.556,0.986,0.556c0.416,0,0.806-0.146,0.806-0.526
		c0-0.33-0.345-0.465-0.811-0.515c-0.716-0.086-1.376-0.275-1.376-1.062c0-0.721,0.711-1.016,1.356-1.021
		c0.545,0,1.111,0.154,1.376,0.695L9.908,13.798z"/>
	<path class="st1" d="M14.185,14.674c0.015,0.886-0.525,1.781-1.752,1.781c-0.431,0-0.946,0-1.376,0v-3.504c0.43,0,0.945,0,1.376,0
		C13.634,12.951,14.169,13.808,14.185,14.674z M11.712,15.819h0.721c0.796,0,1.111-0.58,1.096-1.151
		c-0.015-0.545-0.335-1.091-1.096-1.091h-0.721V15.819z"/>
</g>
</svg>
