<?xml version="1.0" encoding="utf-8"?>
<!-- Generator: Adobe Illustrator 22.0.1, SVG Export Plug-In . SVG Version: 6.00 Build 0)  -->
<svg version="1.1" id="Capa_1" xmlns="http://www.w3.org/2000/svg" xmlns:xlink="http://www.w3.org/1999/xlink" x="0px" y="0px"
	 viewBox="0 0 19.607 24" style="enable-background:new 0 0 19.607 24;" xml:space="preserve">
<style type="text/css">
	.st0{fill:#BABABA;}
	.st1{fill:#231F20;}
</style>
<path class="st0" d="M19.592,7.219V7.215l0,0l0,0c0-0.014-0.006-0.026-0.008-0.039c-0.004-0.03-0.006-0.06-0.018-0.089
	c-0.013-0.032-0.033-0.059-0.055-0.085c-0.006-0.008-0.009-0.017-0.016-0.025l-0.002-0.003c-0.001-0.001-0.002-0.002-0.003-0.003
	l-5.451-5.599l-0.001-0.001C13.977,1.309,13.893,1.27,13.8,1.269h-0.001c-0.002,0-0.003-0.001-0.005-0.001H2.947
	c-0.942,0-1.708,0.766-1.708,1.708v19.331c0,0.942,0.767,1.708,1.708,1.708h14.937c0.942,0,1.708-0.766,1.708-1.707V7.221
	C19.592,7.22,19.592,7.219,19.592,7.219z"/>
<path d="M18.354,5.951V5.947l0,0l0,0c0-0.014-0.006-0.026-0.008-0.039c-0.004-0.03-0.006-0.06-0.018-0.089
	c-0.013-0.032-0.033-0.059-0.055-0.085c-0.006-0.008-0.009-0.017-0.016-0.025l-0.002-0.003c-0.001-0.001-0.002-0.002-0.003-0.003
	l-5.451-5.599L12.8,0.103c-0.061-0.062-0.145-0.101-0.238-0.102h-0.001C12.559,0.001,12.557,0,12.556,0H1.708
	C0.767,0,0,0.766,0,1.708v19.331c0,0.942,0.767,1.708,1.708,1.708h14.937c0.942,0,1.708-0.766,1.708-1.707V5.953
	C18.354,5.952,18.354,5.952,18.354,5.951z M12.897,1.183l4.305,4.422h-4.305C12.897,5.605,12.897,1.183,12.897,1.183z
	 M16.646,22.064H1.708c-0.565,0-1.025-0.46-1.025-1.025V1.708c0-0.565,0.46-1.025,1.025-1.025h10.506v5.264
	c0,0.189,0.153,0.342,0.342,0.342h5.115v14.75C17.67,21.604,17.211,22.064,16.646,22.064z"/>
<g>
	<path class="st1" d="M7.104,14.674c0.015,0.886-0.525,1.781-1.751,1.781c-0.431,0-0.946,0-1.376,0v-3.504c0.43,0,0.946,0,1.376,0
		C6.554,12.951,7.089,13.808,7.104,14.674z M4.632,15.819h0.721c0.796,0,1.111-0.58,1.096-1.151
		c-0.015-0.545-0.335-1.091-1.096-1.091H4.632V15.819z"/>
	<path class="st1" d="M11.079,14.724c-0.01,0.905-0.565,1.812-1.797,1.812c-1.231,0-1.802-0.886-1.802-1.807
		s0.591-1.847,1.802-1.847C10.489,12.882,11.09,13.808,11.079,14.724z M8.131,14.738c0.015,0.576,0.325,1.191,1.151,1.191
		c0.826,0,1.136-0.621,1.146-1.196c0.01-0.591-0.32-1.251-1.146-1.251C8.457,13.482,8.116,14.147,8.131,14.738z"/>
	<path class="st1" d="M14.699,16.015c-0.36,0.355-0.826,0.521-1.331,0.521c-1.302,0-1.853-0.896-1.857-1.807
		c-0.005-0.916,0.591-1.847,1.857-1.847c0.476,0,0.926,0.18,1.286,0.535l-0.44,0.426c-0.23-0.226-0.541-0.331-0.846-0.331
		c-0.846,0-1.212,0.631-1.206,1.217c0.005,0.58,0.34,1.186,1.206,1.186c0.305,0,0.65-0.125,0.881-0.354L14.699,16.015z"/>
</g>
</svg>
