<svg width="22" height="26" viewBox="0 0 22 26" fill="none" xmlns="http://www.w3.org/2000/svg">
<path d="M6.04911 9.2706C6.04911 8.79066 6.43917 8.40186 6.92014 8.40186H15.0792C15.5602 8.40186 15.9503 8.79066 15.9503 9.2706C15.9503 9.7503 15.5602 10.1393 15.0792 10.1393H6.92014C6.43917 10.1393 6.04911 9.7503 6.04911 9.2706ZM6.92014 13.6143H10.9997C11.4807 13.6143 11.8707 13.2253 11.8707 12.7456C11.8707 12.2656 11.4807 11.8768 10.9997 11.8768H6.92014C6.43917 11.8768 6.04911 12.2656 6.04911 12.7456C6.04911 13.2253 6.43917 13.6143 6.92014 13.6143ZM6.92014 6.66437H15.0792C15.5602 6.66437 15.9503 6.27532 15.9503 5.79562C15.9503 5.31568 15.5602 4.92688 15.0792 4.92688H6.92014C6.43917 4.92688 6.04911 5.31568 6.04911 5.79562C6.04911 6.27532 6.43917 6.66437 6.92014 6.66437ZM21.5 4.84373V21.1563C21.4988 22.3079 21.0395 23.412 20.2231 24.2265C19.4065 25.0407 18.2995 25.4988 17.1448 25.5H4.85517C3.70049 25.4988 2.59347 25.0407 1.77687 24.2265C0.960528 23.412 0.501182 22.3079 0.5 21.1563V4.84373C0.501215 3.69208 0.960546 2.58797 1.77687 1.77352C2.59347 0.959318 3.70049 0.501179 4.85517 0.5H17.1448C18.2995 0.501212 19.4065 0.959337 20.2231 1.77352C21.0395 2.58797 21.4988 3.69208 21.5 4.84373ZM19.7579 4.84373C19.7572 4.15289 19.4816 3.49041 18.9917 3.00174C18.5017 2.51307 17.8375 2.23817 17.1448 2.23749H4.85517C4.16251 2.23822 3.49828 2.51309 3.00833 3.00174C2.51837 3.49038 2.24275 4.15289 2.24207 4.84373V21.1563C2.2428 21.8471 2.5184 22.5096 3.00833 22.9983C3.49826 23.4869 4.16251 23.7618 4.85517 23.7625H17.1448C17.8375 23.7618 18.5017 23.4869 18.9917 22.9983C19.4816 22.5096 19.7572 21.8471 19.7579 21.1563V4.84373ZM15.3009 17.9413H15.3007C14.6875 17.976 14.0911 18.1544 13.5603 18.4627C13.508 18.2334 13.4084 18.0174 13.2677 17.8288C13.0047 17.4853 12.5935 17.2868 12.1602 17.2943C11.5273 17.3389 10.9335 17.6155 10.4929 18.0707C10.1704 17.7202 9.71062 17.5278 9.23404 17.5438C7.98093 17.7542 6.85015 18.4195 6.05956 19.4117C5.75236 19.7746 5.79441 20.3163 6.15385 20.6278C6.51354 20.9393 7.05724 20.9051 7.37461 20.5512C7.85776 19.9622 8.48281 19.5055 9.19152 19.2234C9.24475 19.4134 9.25106 19.6134 9.21023 19.8064C9.12493 20.2206 9.35119 20.6361 9.74637 20.7902C10.1413 20.9444 10.5901 20.7922 10.8094 20.4298C11.0967 19.952 11.4617 19.5249 11.8894 19.1667C11.8782 19.4418 11.8377 19.7152 11.7686 19.9819C11.6695 20.3537 11.8274 20.7464 12.1568 20.9469C12.4861 21.1473 12.9082 21.1078 13.1945 20.8499C13.7683 20.2907 14.4765 19.8876 15.2511 19.6791H15.2817C15.7629 19.6842 16.1571 19.2996 16.1622 18.8198C16.1673 18.3399 15.7816 17.9467 15.3006 17.9417L15.3009 17.9413Z" fill="#28AB82"/>
</svg>
